<?xml version="1.0" encoding="utf-8"?>
<!-- Generator: Adobe Illustrator 16.0.0, SVG Export Plug-In . SVG Version: 6.00 Build 0)  -->
<!DOCTYPE svg PUBLIC "-//W3C//DTD SVG 1.1//EN" "http://www.w3.org/Graphics/SVG/1.1/DTD/svg11.dtd">
<svg version="1.1" xmlns="http://www.w3.org/2000/svg" xmlns:xlink="http://www.w3.org/1999/xlink" x="0px" y="0px" width="1280px"
	 height="366.796px" viewBox="0 0 1280 366.796" enable-background="new 0 0 1280 366.796" xml:space="preserve">
<g id="Layer_2">
</g>
<g id="Layer_1">
	<g>
		<path fill="#FFFFFF" d="M3.537,75.987c0-7.212,1.481-13.501,4.443-18.868c2.962-5.365,7.126-9.937,12.492-13.715
			c5.365-3.778,11.805-6.891,19.319-9.338c7.513-2.447,15.777-4.357,24.792-5.731c9.016-1.373,18.675-2.318,28.978-2.833
			c10.303-0.516,20.948-0.773,31.94-0.773c14.94,0,30.587,0.602,46.944,1.803c16.357,1.204,33.421,3.393,51.195,6.568
			c4.122,0.859,7.019,2.404,8.693,4.636c1.674,2.234,2.511,4.723,2.511,7.47c0,1.719-0.386,3.393-1.158,5.023
			c-0.773,1.631-1.804,3.135-3.091,4.507c-1.289,1.374-2.792,2.469-4.508,3.284c-1.719,0.817-3.521,1.224-5.409,1.224
			c-6.613,0-13.503-0.342-20.671-1.031c-7.17-0.687-14.64-1.459-22.41-2.318c-7.771-0.857-15.776-1.717-24.019-2.576
			c-8.243-0.857-16.744-1.5-25.501-1.932c-1.546,9.617-3.521,19.963-5.925,31.038c-2.404,11.077-5.044,22.39-7.92,33.938
			c-2.878,11.548-5.882,23.053-9.015,34.516c-3.136,11.462-6.163,22.41-9.08,32.841c-2.919,10.433-5.646,20.071-8.178,28.915
			c-2.533,8.843-4.617,16.442-6.246,22.795c-0.688,2.92-1.738,5.603-3.156,8.05c-1.417,2.447-3.007,4.572-4.766,6.375
			c-1.76,1.803-3.585,3.197-5.473,4.185c-1.89,0.986-3.65,1.481-5.28,1.481c-4.894,0-8.931-1.16-12.107-3.477
			c-3.177-2.319-4.765-6.053-4.765-11.205c0-1.631,0.257-3.434,0.772-5.41c1.115-7.812,2.596-15.497,4.443-23.053
			c1.846-7.555,4.013-15.433,6.504-23.633c2.49-8.199,5.323-16.892,8.5-26.08c3.175-9.187,6.697-19.296,10.561-30.331
			c3.864-11.031,8.05-23.202,12.557-36.512c4.508-13.307,9.38-28.118,14.618-44.433c-4.553,0.344-9.167,0.73-13.845,1.16
			c-4.681,0.43-9.231,1.01-13.652,1.738c-4.424,0.73-8.545,1.655-12.364,2.769c-3.821,1.117-7.17,2.534-10.045,4.25
			c-2.878,1.718-5.152,3.779-6.827,6.182c-1.674,2.404-2.511,5.238-2.511,8.5c0,0.173-0.109,1.117-0.322,2.833
			c-0.216,1.719-0.966,3.586-2.253,5.602c-1.288,2.019-3.329,3.864-6.119,5.538c-2.79,1.675-6.761,2.511-11.913,2.511
			c-5.152,0-9.144-0.857-11.978-2.576C9.461,88.179,7.4,86.29,6.113,84.229C4.567,81.826,3.708,79.077,3.537,75.987z"/>
		<path fill="#FFFFFF" d="M220.637,132.011c0,2.318-0.257,5.474-0.772,9.466c-0.515,3.993-1.181,8.372-1.997,13.137
			c-0.817,4.765-1.696,9.681-2.64,14.746c-0.946,5.067-1.825,9.789-2.64,14.168c-0.817,4.378-1.481,8.222-1.996,11.526
			c-0.515,3.306-0.773,5.602-0.773,6.891c0,2.405,0.042,4.615,0.13,6.633c0.084,2.018,0.341,3.778,0.772,5.281
			c0.429,1.502,1.095,2.661,1.997,3.477c0.901,0.816,2.209,1.223,3.928,1.223c1.887,0,4.186-0.471,6.89-1.416
			c2.705-0.944,5.581-2.211,8.629-3.8c3.046-1.588,6.16-3.392,9.337-5.409c3.175-2.017,6.203-4.142,9.08-6.375
			c2.876-2.232,5.494-4.443,7.856-6.633c2.36-2.189,4.27-4.228,5.731-6.117c0,2.834,0.02,5.41,0.064,7.728
			c0.042,2.317,0.064,4.529,0.064,6.633c0,2.104,0.02,4.272,0.064,6.503c0.042,2.233,0.064,4.723,0.064,7.471
			c-1.889,1.889-4.23,3.907-7.02,6.053c-2.791,2.146-5.881,4.293-9.273,6.44c-3.393,2.146-6.999,4.207-10.818,6.182
			c-3.821,1.975-7.663,3.713-11.526,5.216c-3.865,1.503-7.686,2.704-11.462,3.606c-3.78,0.901-7.299,1.353-10.562,1.353
			c-3.265,0-6.053-0.645-8.372-1.933c-2.318-1.288-4.314-3.091-5.989-5.409c-1.674-2.318-3.091-5.087-4.25-8.307
			c-1.159-3.22-2.169-6.804-3.026-10.754c-3.091,4.036-6.355,7.749-9.788,11.14c-3.436,3.393-6.935,6.333-10.497,8.823
			c-3.564,2.49-7.169,4.443-10.818,5.859c-3.651,1.417-7.192,2.125-10.625,2.125c-2.834,0-5.496-0.471-7.985-1.417
			c-2.492-0.944-4.701-2.533-6.632-4.767c-1.933-2.23-3.458-5.171-4.573-8.822c-1.117-3.648-1.674-8.178-1.674-13.586
			c0-6.611,0.793-15.025,2.383-25.243c1.588-10.217,3.541-21.895,5.859-35.031c0.171-1.288,0.494-3.026,0.966-5.216
			c0.471-2.188,1.115-4.572,1.933-7.147c0.814-2.576,1.822-5.194,3.026-7.856c1.202-2.661,2.619-5.065,4.25-7.212
			c1.63-2.146,3.542-3.907,5.731-5.281c2.189-1.372,4.656-2.104,7.405-2.189c4.55,0.174,7.812,0.752,9.789,1.739
			c1.975,0.988,2.962,2.211,2.962,3.67c-0.772,4.553-1.61,9.617-2.511,15.198c-0.901,5.583-1.825,11.204-2.769,16.872
			c-0.946,5.667-1.848,11.183-2.705,16.55c-0.859,5.367-1.632,10.154-2.318,14.359c-0.689,4.208-1.224,7.599-1.61,10.175
			c-0.387,2.575-0.58,3.907-0.58,3.992c0,1.544,0.148,3.026,0.45,4.443c0.3,1.417,0.751,2.685,1.353,3.799
			c0.6,1.117,1.372,2.018,2.318,2.705c0.944,0.688,2.061,1.03,3.348,1.03c1.887,0,3.82-0.493,5.796-1.481
			c1.974-0.987,3.842-2.402,5.603-4.25c1.758-1.846,3.327-4.121,4.701-6.826c1.372-2.705,2.402-5.774,3.09-9.208l12.75-65.425
			c0.429-2.061,2.168-3.8,5.216-5.217c3.046-1.417,6.504-2.125,10.368-2.125c4.379,0,7.856,0.772,10.432,2.319
			C219.349,127.632,220.637,129.608,220.637,132.011z"/>
		<path fill="#FFFFFF" d="M301.775,223.195c0-1.116,0.084-2.705,0.258-4.765c0.171-2.061,0.428-4.422,0.772-7.083
			c0.342-2.661,0.728-5.474,1.159-8.437c0.43-2.961,0.858-5.901,1.289-8.822c0.944-6.868,2.102-14.251,3.477-22.15h-1.931
			c-1.031,1.287-2.211,3.218-3.542,5.795c-1.333,2.576-3.2,6.354-5.602,11.333c-2.406,4.981-5.474,11.442-9.209,19.384
			c-3.735,7.942-8.565,17.881-14.489,29.814c-1.719,3.521-3.715,5.904-5.989,7.148c-2.275,1.246-4.787,1.867-7.534,1.867
			c-3.522,0-6.355-0.75-8.5-2.253c-2.146-1.501-3.8-3.52-4.958-6.054c-1.16-2.532-1.932-5.408-2.318-8.628s-0.58-6.547-0.58-9.982
			c0-3.519,0.213-7.683,0.644-12.493c0.429-4.807,0.986-9.873,1.674-15.196c0.687-5.323,1.481-10.754,2.382-16.292
			c0.902-5.539,1.846-10.839,2.833-15.906c0.987-5.065,1.997-9.702,3.027-13.909c1.03-4.206,1.975-7.641,2.833-10.304
			c0.857-2.747,1.674-4.937,2.447-6.568c0.773-1.63,1.652-2.897,2.64-3.799c0.986-0.902,2.167-1.501,3.542-1.803
			c1.373-0.3,3.134-0.451,5.281-0.451c3.263,0,5.815,0.108,7.664,0.321c1.845,0.216,3.219,0.73,4.121,1.546
			c0.902,0.817,1.437,1.996,1.61,3.542c0.171,1.545,0.258,3.651,0.258,6.311c0,1.461-0.065,3.135-0.193,5.022
			c-0.129,1.89-0.322,3.909-0.58,6.054c-0.257,2.146-0.537,4.359-0.836,6.633c-0.302,2.275-0.624,4.486-0.966,6.633
			c-0.773,5.067-1.59,10.303-2.447,15.712l1.417,1.545c0.171-0.257,1.094-1.887,2.769-4.894c1.674-3.005,3.735-6.61,6.183-10.818
			c2.447-4.206,5.087-8.607,7.92-13.202c2.833-4.592,5.538-8.648,8.113-12.171c2.49-3.519,5.13-6.439,7.921-8.757
			c2.789-2.318,6.118-3.477,9.981-3.477c3.606,0,6.698,1.051,9.273,3.155c2.577,2.105,3.864,5.087,3.864,8.951
			c0,3.349-0.215,6.526-0.644,9.53c-0.431,3.007-0.966,5.925-1.61,8.758c-0.644,2.833-1.31,5.603-1.996,8.308
			c-0.688,2.705-1.333,5.474-1.932,8.307c-0.431,1.976-0.688,3.22-0.772,3.735c-0.086,0.515-0.129,0.859-0.129,1.03l1.417,1.545
			c0.171-0.257,1.159-1.867,2.963-4.83c1.802-2.962,4.012-6.546,6.632-10.754c2.619-4.206,5.409-8.629,8.371-13.265
			c2.962-4.637,5.731-8.713,8.307-12.236c2.49-3.433,4.979-6.33,7.469-8.692c2.49-2.361,5.539-3.542,9.146-3.542
			c4.033,0,7.447,1.051,10.238,3.155c2.789,2.105,4.186,5.087,4.186,8.951c0,5.924-0.302,11.549-0.902,16.872
			c-0.601,5.324-1.288,10.561-2.061,15.712c-0.772,5.151-1.461,10.367-2.06,15.648c-0.603,5.281-0.902,10.882-0.902,16.807
			c0,4.636,0.6,8.415,1.803,11.334c1.202,2.919,2.66,4.379,4.379,4.379c1.804,0,3.69-0.387,5.667-1.159
			c1.975-0.774,3.993-1.76,6.054-2.963c2.06-1.203,4.076-2.597,6.052-4.186c1.975-1.588,3.865-3.24,5.667-4.958
			c4.206-3.95,8.372-8.415,12.493-13.395l2.19,30.394c-3.779,3.006-7.535,6.117-11.27,9.337c-3.735,3.22-7.685,6.14-11.849,8.757
			c-4.166,2.62-8.737,4.766-13.716,6.44c-4.979,1.674-10.605,2.511-16.871,2.511c-3.091,0-5.689-1.007-7.792-3.026
			c-2.105-2.017-3.8-4.83-5.087-8.436c-1.288-3.606-2.211-7.857-2.77-12.751c-0.559-4.894-0.837-10.216-0.837-15.97
			c0-5.409,0.194-11.14,0.581-17.194c0.386-6.053,0.921-12.17,1.609-18.353h-1.931l-26.145,66.585
			c-2.234,3.606-4.723,6.032-7.47,7.276c-2.749,1.246-5.924,1.867-9.531,1.867c-2.749,0-4.938-0.75-6.568-2.253
			c-1.631-1.501-2.898-3.434-3.8-5.796c-0.901-2.36-1.502-4.958-1.803-7.792C301.923,228.604,301.775,225.857,301.775,223.195z"/>
		<path fill="#FFFFFF" d="M458.899,143.602c4.808-6.009,9.209-10.837,13.201-14.489c3.992-3.648,7.963-5.473,11.913-5.473
			c5.065,0,9.573,1.116,13.523,3.348c3.948,2.234,7.297,5.197,10.045,8.886c2.747,3.693,4.85,7.943,6.311,12.751
			c1.459,4.81,2.189,9.832,2.189,15.068c0,4.379-0.173,8.521-0.515,12.428c-0.344,3.908-0.966,7.728-1.868,11.463
			c-0.901,3.734-2.146,7.449-3.734,11.14c-1.591,3.692-3.671,7.513-6.247,11.462c3.091-1.803,6.225-3.562,9.402-5.28
			c3.175-1.717,6.375-3.606,9.595-5.667c3.219-2.061,6.459-4.357,9.723-6.891c3.262-2.531,6.611-5.516,10.046-8.951l9.917,21.25
			c-4.722,4.294-9.423,8.029-14.103,11.206c-4.68,3.176-9.487,5.946-14.424,8.306c-4.938,2.363-10.09,4.402-15.456,6.118
			c-5.366,1.717-11.056,3.263-17.065,4.636c-1.46,1.461-3.457,2.919-5.988,4.379c-2.534,1.461-5.045,2.791-7.535,3.992
			c-2.834,1.375-5.882,2.706-9.145,3.992h-3.219c-7.298,0-14.533-1.007-21.701-3.026c-7.17-2.017-13.674-4.271-19.512-6.762
			c-6.784-2.833-13.265-6.096-19.447-9.788c0.257-6.955,0.771-14.811,1.545-23.569c0.686-7.555,1.63-16.463,2.834-26.725
			c1.201-10.259,2.833-21.7,4.894-34.323c1.373-8.414,3.091-17.792,5.152-28.141c2.06-10.346,4.485-20.82,7.276-31.425
			c2.789-10.603,5.924-20.906,9.402-30.909c3.478-10.001,7.341-18.91,11.591-26.725c4.25-7.812,8.886-14.08,13.91-18.803
			C466.434,2.362,471.863,0,477.704,0c6.523,0,11.762,1.117,15.712,3.349c3.948,2.234,6.997,5.261,9.145,9.08
			c2.145,3.821,3.562,8.307,4.25,13.458c0.687,5.152,1.03,10.647,1.03,16.485c0,8.158-1.525,16.572-4.572,25.243
			c-3.048,8.674-7.019,17.323-11.914,25.952c-4.894,8.629-10.368,17.064-16.42,25.307c-6.053,8.243-12.086,16.014-18.095,23.311
			L458.899,143.602z M470.491,153.004c-3.006,0-6.011,0.624-9.015,1.868c-3.007,1.245-5.796,3.177-8.372,5.795
			c-2.577,2.62-4.852,5.967-6.826,10.045c-1.977,4.079-3.435,8.995-4.379,14.747c-0.773,4.636-1.417,8.908-1.932,12.815
			c-0.515,3.907-0.946,7.362-1.288,10.368c-0.345,3.434-0.644,6.654-0.901,9.659c2.833,0.86,5.666,1.588,8.5,2.189
			c2.49,0.515,5.108,0.987,7.856,1.417c2.748,0.43,5.365,0.643,7.856,0.643c2.917,0,5.581-0.857,7.985-2.575
			c2.403-1.716,4.55-4.013,6.44-6.89c1.887-2.875,3.52-6.16,4.894-9.852c1.373-3.692,2.49-7.534,3.348-11.528
			c0.857-3.992,1.501-7.941,1.932-11.848c0.428-3.907,0.644-7.49,0.644-10.754c0-2.146-0.238-4.186-0.708-6.118
			c-0.472-1.932-1.332-3.626-2.576-5.087c-1.245-1.459-2.962-2.64-5.151-3.542C476.608,153.454,473.839,153.004,470.491,153.004z
			 M483.112,35.031c0-0.341-0.064-1.073-0.193-2.189c-0.129-1.115-0.431-2.274-0.902-3.478c-0.472-1.202-1.139-2.274-1.996-3.22
			c-0.859-0.944-2.018-1.417-3.478-1.417c-1.719,0-3.499,1.224-5.345,3.671c-1.847,2.447-3.67,5.753-5.473,9.917
			c-1.803,4.166-3.564,8.973-5.281,14.424c-1.719,5.455-3.393,11.163-5.023,17.13c-1.632,5.969-3.155,12.042-4.572,18.224
			c-1.417,6.182-2.704,12.042-3.864,17.58c-1.159,5.538-2.169,10.605-3.026,15.197c-0.859,4.594-1.545,8.307-2.061,11.141
			c2.319-4.463,4.914-9.099,7.792-13.909c2.875-4.808,5.774-9.808,8.693-15.004c2.918-5.194,5.774-10.517,8.565-15.97
			c2.789-5.452,5.323-11.031,7.599-16.742c2.274-5.71,4.164-11.505,5.667-17.387C481.716,47.118,482.682,41.129,483.112,35.031z"/>
		<path fill="#FFFFFF" d="M568.243,247.278c-4.637,0-8.952-2.039-12.944-6.117c-3.992-4.077-7.469-9.551-10.432-16.42
			c-2.962-6.869-5.28-14.832-6.955-23.891c-1.673-9.058-2.511-18.567-2.511-28.527c0-7.641,0.558-15.948,1.674-24.921
			c1.115-8.971,2.747-18.224,4.894-27.754c2.146-9.531,4.701-19.104,7.663-28.721c2.962-9.615,6.311-18.846,10.046-27.689
			c3.735-8.842,7.792-17.108,12.17-24.792c4.379-7.683,8.972-14.38,13.781-20.091c4.809-5.709,9.831-10.195,15.069-13.458
			C605.934,1.632,611.259,0,616.668,0c3.691,0,6.74,0.838,9.145,2.512c2.403,1.674,4.292,3.886,5.666,6.633
			c1.373,2.749,2.339,5.859,2.898,9.336c0.558,3.478,0.836,7.02,0.836,10.625c0,8.072-0.923,16.292-2.769,24.664
			c-1.847,8.372-4.336,16.788-7.47,25.243c-3.135,8.458-6.762,16.936-10.883,25.437c-4.121,8.5-8.416,16.936-12.879,25.307
			c-4.465,8.371-8.951,16.614-13.458,24.728c-4.508,8.114-8.739,16.035-12.687,23.763c-0.431,0.858-0.881,1.975-1.352,3.348
			c-0.473,1.374-0.924,2.855-1.353,4.443c-0.43,1.589-0.859,3.285-1.288,5.087c-0.431,1.803-0.773,3.563-1.031,5.281v1.803
			c0,2.233,0.236,4.4,0.708,6.503c0.471,2.105,1.051,3.992,1.74,5.667c0.686,1.674,1.417,3.006,2.189,3.993
			c0.772,0.987,1.5,1.481,2.189,1.481c1.63,0,3.497-0.344,5.602-1.031c2.104-0.687,4.334-1.611,6.697-2.77
			c2.361-1.158,4.786-2.489,7.276-3.992c2.49-1.502,4.895-3.026,7.212-4.572c5.41-3.606,11.077-7.77,17-12.493l10.562,27.046
			c-7.643,5.496-15.198,10.39-22.668,14.683c-3.263,1.802-6.633,3.586-10.109,5.345c-3.478,1.76-6.977,3.328-10.497,4.7
			c-3.522,1.375-6.955,2.468-10.304,3.284C574.296,246.872,571.161,247.278,568.243,247.278z M568.372,144.246
			c3.864-6.869,7.964-14.596,12.299-23.183c4.334-8.583,8.436-17.429,12.3-26.53c3.864-9.1,7.212-18.179,10.046-27.239
			c2.833-9.058,4.636-17.494,5.409-25.307c0-2.49-0.064-4.615-0.193-6.375c-0.129-1.759-0.537-2.64-1.224-2.64
			c-2.492,0-5.173,1.61-8.05,4.83c-2.878,3.219-5.753,7.579-8.629,13.072c-2.877,5.496-5.624,11.893-8.242,19.189
			c-2.621,7.299-4.958,15.069-7.02,23.311c-2.06,8.243-3.692,16.724-4.894,25.437C568.971,127.525,568.372,136.004,568.372,144.246z
			"/>
		<path fill="#FFFFFF" d="M679.52,148.367c0.686-2.917,1.908-5.516,3.668-7.792c1.76-2.273,3.779-4.186,6.055-5.731
			c2.273-1.545,4.656-2.705,7.148-3.477c2.488-0.772,4.85-1.159,7.082-1.159c2.66,0,4.895,0.579,6.697,1.739
			c1.805,1.159,2.705,2.984,2.705,5.473c0,0.772-0.129,1.674-0.387,2.705c-0.514,2.234-1.158,5.281-1.932,9.145
			c-0.771,3.863-1.609,8.243-2.512,13.137c-0.9,4.894-1.824,10.067-2.768,15.519c-0.945,5.453-1.848,10.883-2.705,16.292
			c-2.148,12.708-4.338,26.359-6.568,40.955c2.574-1.459,5.365-3.263,8.371-5.41c3.004-2.145,6.354-5.021,10.045-8.628
			s7.812-8.135,12.365-13.588c4.549-5.451,9.658-12.256,15.326-20.413l6.182,28.591c-1.547,2.662-3.543,5.389-5.99,8.178
			c-2.445,2.792-5.15,5.582-8.113,8.372c-2.961,2.791-6.053,5.495-9.273,8.114c-3.219,2.62-6.375,5.087-9.465,7.405
			c-7.299,5.495-15.156,10.819-23.568,15.971c-1.633,9.186-3.564,18.137-5.797,26.853c-2.232,8.714-4.873,16.872-7.92,24.472
			c-3.049,7.598-6.525,14.572-10.432,20.928c-3.908,6.353-8.33,11.805-13.268,16.355c-4.936,4.551-10.453,8.094-16.548,10.626
			c-6.096,2.532-12.836,3.8-20.22,3.8c-2.919,0-6.075-0.302-9.466-0.902c-3.394-0.602-6.526-1.803-9.402-3.605
			c-2.876-1.804-5.259-4.379-7.147-7.727c-1.888-3.35-2.834-7.814-2.834-13.395c0-3.865,0.988-8.223,2.963-13.073
			c1.977-4.853,4.681-9.961,8.114-15.326c3.433-5.366,7.512-10.948,12.235-16.743c4.721-5.796,9.853-11.571,15.391-17.322
			c5.538-5.754,11.334-11.419,17.386-17c6.053-5.582,12.172-10.905,18.354-15.97l3.477-11.978c-4.637,4.121-9.465,7.45-14.488,9.98
			c-5.021,2.534-9.896,3.8-14.618,3.8c-4.122,0-8.136-0.837-12.042-2.511c-3.909-1.675-7.363-4.078-10.369-7.213
			c-3.006-3.133-5.408-6.954-7.211-11.462c-1.804-4.507-2.706-9.595-2.706-15.262c0-7.469,0.365-14.338,1.095-20.606
			c0.729-6.267,1.782-12.234,3.156-17.902c1.372-5.667,3.091-11.14,5.152-16.42c2.06-5.28,4.421-10.625,7.083-16.035
			c1.975-3.864,4.809-6.803,8.501-8.822c3.691-2.017,7.296-3.027,10.818-3.027c3.004,0,5.58,0.753,7.729,2.254
			c2.145,1.503,3.219,3.844,3.219,7.02c0,0.946-0.109,1.976-0.322,3.091c-0.215,1.117-0.58,2.318-1.094,3.606
			c-1.547,3.95-3.07,8.608-4.572,13.974c-1.504,5.367-2.834,10.862-3.994,16.485c-1.158,5.625-2.081,11.14-2.768,16.549
			c-0.688,5.41-1.03,10.175-1.03,14.296c0,2.147,0.15,4.23,0.451,6.247c0.299,2.019,0.837,3.82,1.609,5.408
			c0.773,1.59,1.803,2.878,3.091,3.865c1.289,0.987,2.918,1.48,4.895,1.48c3.174,0,6.053-1.372,8.629-4.12
			c2.576-2.748,4.807-6.053,6.697-9.917c1.887-3.864,3.412-7.857,4.572-11.978c1.158-4.121,1.91-7.555,2.254-10.303L679.52,148.367z
			 M619.244,342.068c3.606,0,7.02-1.053,10.238-3.154c3.22-2.105,6.182-4.875,8.886-8.309c2.705-3.434,5.172-7.34,7.407-11.72
			c2.232-4.378,4.207-8.865,5.924-13.458s3.178-9.079,4.379-13.458c1.203-4.379,2.146-8.286,2.834-11.72
			c-3.348,2.231-6.762,4.895-10.238,7.985s-6.871,6.417-10.175,9.981c-3.306,3.563-6.44,7.232-9.401,11.012
			c-2.963,3.777-5.561,7.405-7.792,10.883c-2.234,3.478-3.993,6.718-5.281,9.724c-1.288,3.004-1.932,5.494-1.932,7.469
			C614.092,340.479,615.81,342.068,619.244,342.068z"/>
		<path fill="#FFFFFF" d="M803.156,222.679c0,0.344-0.041,1.204-0.127,2.576c-0.088,1.375-0.365,2.963-0.838,4.766
			c-0.473,1.804-1.203,3.713-2.189,5.731c-0.988,2.018-2.381,3.886-4.186,5.601c-1.803,1.719-4.08,3.135-6.826,4.251
			c-2.748,1.116-6.096,1.673-10.045,1.673c-3.178,0-6.055-0.406-8.629-1.223c-2.576-0.816-4.787-2.06-6.633-3.735
			c-1.848-1.673-3.285-3.819-4.314-6.438c-1.029-2.619-1.545-5.774-1.545-9.466c0-3.091,0.449-6.117,1.352-9.08
			c0.902-2.961,2.295-5.602,4.186-7.92c1.887-2.319,4.336-4.164,7.34-5.539c3.006-1.373,6.568-2.06,10.689-2.06
			c7.127,0,12.537,1.803,16.23,5.41C801.311,210.831,803.156,215.982,803.156,222.679z"/>
		<path fill="#FFFFFF" d="M876.311,224.354c8.672,0,16.57-0.857,23.697-2.576c7.127-1.716,13.588-4.034,19.385-6.954
			c5.793-2.919,11.029-6.332,15.711-10.239c4.68-3.906,8.908-8.092,12.686-12.558l1.416,29.493c-2.748,3.348-6.074,6.591-9.98,9.724
			c-3.906,3.134-8.178,5.881-12.814,8.243c-4.637,2.361-9.51,4.249-14.617,5.667c-5.109,1.417-10.154,2.124-15.135,2.124
			c-0.6,0-1.352-0.084-2.252-0.257c-0.9-0.171-2.469-0.472-4.701-0.901c-2.234-0.43-5.432-1.008-9.596-1.739
			c-4.164-0.729-9.809-1.61-16.936-2.639v2.317c0,15.626-1.311,29.815-3.928,42.565c-2.619,12.751-6.117,23.634-10.496,32.648
			c-4.381,9.017-9.402,15.971-15.068,20.865c-5.668,4.895-11.549,7.342-17.645,7.342c-4.895,0-8.973-1.203-12.234-3.606
			c-3.264-2.405-5.861-5.647-7.793-9.725c-1.932-4.078-3.305-8.843-4.121-14.296c-0.816-5.452-1.225-11.226-1.225-17.322
			c0-3.52,0.559-7.491,1.676-11.913c1.117-4.422,2.619-9.059,4.508-13.91s4.014-9.788,6.375-14.81
			c2.361-5.023,4.785-9.896,7.277-14.619c5.838-10.99,12.492-22.322,19.961-34c0.943-6.697,1.91-13.565,2.898-20.606
			c0.986-7.04,2.232-13.866,3.734-20.478s3.393-12.879,5.668-18.804c2.273-5.925,5.193-11.076,8.756-15.455
			c3.564-4.378,7.836-7.856,12.816-10.432c4.979-2.576,10.988-3.863,18.029-3.863c5.236,0,10.131,0.708,14.684,2.125
			c4.549,1.417,8.541,3.715,11.977,6.891c3.434,3.177,6.137,7.276,8.115,12.299c1.975,5.022,2.961,11.184,2.961,18.48
			c0,5.84-0.859,11.484-2.576,16.937c-1.717,5.452-4.4,10.669-8.049,15.647c-3.65,4.98-8.287,9.639-13.91,13.975
			c-5.623,4.335-12.299,8.221-20.025,11.655L876.311,224.354z M815.264,304.075c0,0.687,0.15,1.803,0.451,3.348
			c0.299,1.545,0.793,3.091,1.48,4.637c0.686,1.545,1.588,2.918,2.705,4.121c1.115,1.201,2.488,1.803,4.121,1.803
			c1.459,0,2.662-0.793,3.607-2.382c0.943-1.59,1.715-3.715,2.316-6.375c0.602-2.663,1.031-5.667,1.289-9.016
			c0.258-3.349,0.471-6.783,0.643-10.303c0.172-3.521,0.279-6.955,0.324-10.304c0.041-3.348,0.148-6.355,0.32-9.016
			c0.258-4.636,0.451-8.565,0.58-11.784s0.236-5.904,0.322-8.049c0.086-2.405,0.17-4.421,0.258-6.053
			c-1.633,2.833-3.221,6.118-4.766,9.853c-1.545,3.735-3.006,7.619-4.379,11.656c-1.375,4.036-2.619,8.07-3.734,12.106
			c-1.117,4.035-2.084,7.792-2.898,11.27c-0.816,3.477-1.461,6.482-1.932,9.015C815.5,301.134,815.264,302.958,815.264,304.075z
			 M860.084,211.346c5.15-2.577,9.594-5.452,13.33-8.629c3.734-3.176,6.955-6.567,9.658-10.174s4.916-7.342,6.633-11.205
			c1.717-3.864,3.092-7.812,4.121-11.849c0.43-1.889,0.707-4.1,0.836-6.633c0.131-2.532-0.129-4.915-0.771-7.147
			c-0.645-2.233-1.76-4.142-3.348-5.732c-1.59-1.588-3.801-2.382-6.633-2.382c-3.178,0-5.969,0.881-8.371,2.64
			c-2.406,1.76-4.488,4.144-6.248,7.148c-1.76,3.006-3.221,6.567-4.379,10.689c-1.158,4.122-2.104,8.544-2.832,13.266
			c-0.73,4.723-1.246,9.639-1.547,14.747C860.232,201.194,860.084,206.281,860.084,211.346z"/>
		<path fill="#FFFFFF" d="M929.629,197.823c4.811-4.121,8.715-7.555,11.721-10.303s5.582-5.259,7.727-7.534
			c2.146-2.274,4.1-4.573,5.861-6.891c1.758-2.318,3.842-5.065,6.246-8.243c2.402-3.176,5.324-7.062,8.758-11.655
			c3.434-4.592,7.9-10.324,13.395-17.193c1.117-1.546,2.361-3.047,3.734-4.508c1.373-1.459,2.898-2.769,4.572-3.928
			c1.676-1.159,3.521-2.104,5.537-2.833c2.018-0.728,4.271-1.095,6.764-1.095c4.121,0,7.297,0.451,9.529,1.352
			c2.232,0.902,3.865,1.997,4.895,3.284c1.029,1.289,1.631,2.64,1.803,4.057c0.172,1.417,0.258,2.641,0.258,3.671
			c0,2.06-0.816,4.335-2.447,6.825c-1.631,2.492-3.434,4.894-5.41,7.212c-1.975,2.319-3.842,4.443-5.602,6.375
			c-1.76,1.932-2.768,3.371-3.025,4.315c0,2.662,0.191,5.087,0.578,7.276c0.387,2.189,0.9,4.336,1.545,6.44
			c0.645,2.104,1.311,4.336,1.998,6.697c0.686,2.362,1.354,5.087,1.996,8.179c0.643,3.091,1.16,6.654,1.545,10.689
			c0.385,4.036,0.58,8.802,0.58,14.295c3.092-2.06,6.416-3.928,9.98-5.603c3.562-1.674,7.277-3.413,11.141-5.215
			c3.863-1.803,7.834-3.799,11.914-5.988c4.078-2.19,8.178-4.83,12.299-7.921l0.129,28.85c-5.326,4.12-11.484,7.985-18.48,11.591
			c-7,3.606-14.342,6.783-22.025,9.531c-7.684,2.748-15.455,4.915-23.311,6.503c-7.855,1.589-15.305,2.383-22.344,2.383
			c-5.068,0-9.789-0.473-14.168-1.417c-4.379-0.945-8.223-2.425-11.527-4.443c-3.305-2.017-5.988-4.657-8.049-7.92
			c-2.061-3.264-3.305-7.212-3.736-11.849c-1.203,0.257-2.383,0.43-3.541,0.515c-1.158,0.086-2.297,0.128-3.412,0.128
			c-1.373,0-2.664-0.042-3.863-0.128c-1.205-0.085-2.234-0.407-3.092-0.966c-0.859-0.557-1.545-1.458-2.061-2.705
			c-0.516-1.244-0.773-3.026-0.773-5.345c0-2.06,0.516-3.97,1.545-5.73c1.031-1.759,2.232-3.327,3.607-4.702
			c1.373-1.373,2.746-2.575,4.121-3.606C927.912,199.24,928.943,198.424,929.629,197.823z M946.115,214.308
			c1.029,0,2.168,0.645,3.414,1.933c1.244,1.288,2.682,2.705,4.314,4.25c1.629,1.546,3.518,2.961,5.666,4.25
			c2.146,1.288,4.592,1.931,7.34,1.931c3.35,0,6.119-0.558,8.309-1.674c2.189-1.115,3.928-2.596,5.217-4.443
			c1.287-1.845,2.189-3.993,2.703-6.44c0.516-2.447,0.773-5.001,0.773-7.663c0-2.318-0.15-4.679-0.451-7.083
			c-0.301-2.402-0.688-4.7-1.16-6.89c-0.471-2.189-0.986-4.25-1.545-6.183c-0.559-1.931-1.051-3.584-1.48-4.958L946.115,214.308z"/>
		<path fill="#FFFFFF" d="M1152.309,218.43c-8.242,4.809-15.582,9.016-22.021,12.622c-6.439,3.606-12.172,6.612-17.195,9.015
			c-5.021,2.405-9.486,4.208-13.393,5.409c-3.908,1.204-7.449,1.803-10.625,1.803c-6.525,0-12.279-1.974-17.26-5.925
			c-4.98-3.948-9.143-9.636-12.492-17.063c-3.348-7.427-5.861-16.422-7.533-26.982c-1.674-10.561-2.512-22.451-2.512-35.675
			c0-5.151,0.213-10.645,0.643-16.485c0.43-5.838,1.031-11.633,1.805-17.386c-2.578-0.342-4.572-0.665-5.988-0.966
			c-1.418-0.3-2.922-0.6-4.51-0.902c-1.588-0.3-3.605-0.622-6.053-0.966c-2.445-0.341-5.988-0.772-10.625-1.287
			c-2.061-0.258-3.648-0.751-4.764-1.48c-1.117-0.729-1.934-1.589-2.447-2.577c-0.516-0.985-0.816-2.016-0.902-3.09
			c-0.084-1.073-0.131-1.997-0.131-2.769c0-1.717,0.838-3.027,2.514-3.928c1.674-0.902,3.82-1.566,6.439-1.997
			c2.619-0.429,5.494-0.664,8.629-0.708c3.133-0.043,6.137-0.02,9.016,0.064c2.875,0.086,5.451,0.151,7.727,0.193
			c2.275,0.044,3.842-0.021,4.701-0.193c2.318-11.592,5.26-22.816,8.822-33.679c3.562-10.861,7.557-20.52,11.977-28.977
			c4.422-8.456,9.252-15.24,14.49-20.35c5.238-5.107,10.732-7.663,16.484-7.663c3.691,0,7.061,1.03,10.111,3.091
			c3.047,2.061,5.645,4.81,7.791,8.242c2.146,3.435,3.799,7.45,4.957,12.042c1.162,4.594,1.74,9.382,1.74,14.36
			c0,4.208-0.602,8.651-1.803,13.33c-1.203,4.681-2.834,9.447-4.895,14.296c-2.061,4.851-4.488,9.767-7.277,14.747
			c-2.791,4.979-5.73,9.917-8.822,14.811c0.773,0.086,2.061,0.15,3.865,0.193c1.803,0.044,3.883,0.109,6.246,0.193
			c2.359,0.086,4.914,0.193,7.664,0.322c2.744,0.129,5.408,0.238,7.984,0.323c2.574,0.085,4.979,0.173,7.211,0.257
			c2.232,0.086,4.078,0.173,5.537,0.258c1.717,0.086,2.963,0.946,3.736,2.576c0.771,1.632,1.158,3.693,1.158,6.182
			c0,3.006-0.857,5.453-2.576,7.341c-1.717,1.889-3.605,2.833-5.666,2.833h-49.455c-2.49,3.435-5.002,6.807-7.535,10.11
			c-2.533,3.306-4.873,6.291-7.018,8.952c-0.344,5.324-0.645,10.561-0.902,15.712c-0.088,2.233-0.174,4.53-0.258,6.891
			c-0.086,2.362-0.172,4.701-0.258,7.019c-0.086,2.318-0.15,4.551-0.193,6.697c-0.043,2.147-0.064,4.121-0.064,5.925
			c0,4.636,0.43,8.544,1.289,11.72c0.857,3.177,2.102,5.775,3.734,7.792c1.631,2.018,3.627,3.477,5.988,4.379
			c2.361,0.901,5.002,1.352,7.92,1.352c1.805,0,4.059-0.429,6.764-1.288c2.703-0.858,5.666-2.039,8.887-3.542
			c3.219-1.502,6.611-3.285,10.174-5.346c3.562-2.06,7.084-4.314,10.561-6.761c3.477-2.447,6.803-5.023,9.98-7.728
			s6.053-5.474,8.629-8.307V218.43z M1111.096,55.38c0-0.944-0.062-1.996-0.191-3.155c-0.129-1.159-0.41-2.254-0.838-3.284
			c-0.43-1.03-1.096-1.887-1.996-2.576c-0.902-0.687-2.168-1.03-3.801-1.03c-2.232,0-4.486,1.977-6.76,5.924
			c-2.277,3.95-4.467,8.996-6.568,15.134c-2.105,6.138-4.078,12.9-5.926,20.284c-1.846,7.385-3.541,14.553-5.086,21.508
			c1.287,0.173,2.574,0.322,3.863,0.45c1.287,0.129,2.617,0.28,3.992,0.451c2.576-4.379,5.258-9.122,8.049-14.231
			c2.791-5.107,5.301-10.13,7.535-15.068c2.232-4.937,4.078-9.551,5.537-13.845C1110.367,61.648,1111.096,58.129,1111.096,55.38z"/>
		<path fill="#FFFFFF" d="M1148.316,220.361c0-3.778,0.215-8.177,0.645-13.2c0.43-5.023,1.008-10.324,1.738-15.907
			c0.729-5.58,1.588-11.268,2.576-17.064c0.986-5.796,2.039-11.311,3.156-16.55c1.115-5.236,2.23-10.045,3.348-14.424
			c1.113-4.38,2.23-7.985,3.35-10.819c0.686-1.887,1.371-3.391,2.061-4.507c0.686-1.115,1.48-1.997,2.381-2.64
			c0.902-0.644,2.018-1.073,3.35-1.289c1.33-0.213,2.982-0.321,4.959-0.321c2.23,0,3.969,0.108,5.215,0.321
			c1.244,0.216,2.168,0.73,2.77,1.546c0.6,0.817,0.965,1.996,1.096,3.542c0.129,1.545,0.191,3.651,0.191,6.311
			c0,3.177,0,7.019,0,11.526c0,4.508,0.086,8.952,0.258,13.331h1.416c1.717-3.434,3.65-7.277,5.797-11.528
			c2.146-4.25,4.637-8.22,7.469-11.913c2.834-3.69,6.055-6.803,9.66-9.337c3.607-2.531,7.77-3.799,12.492-3.799
			c1.631,0,3.219,0.279,4.766,0.836c1.545,0.56,2.896,1.353,4.057,2.383c1.16,1.03,2.082,2.298,2.77,3.799
			c0.686,1.502,1.031,3.2,1.031,5.087c0,1.461-0.215,3.5-0.646,6.118c-0.43,2.62-0.9,5.367-1.414,8.243
			c-0.516,2.878-0.988,5.667-1.418,8.372c-0.43,2.704-0.645,4.958-0.645,6.762c0,3.091,0.301,5.666,0.902,7.727
			c0.6,2.061,1.395,3.715,2.383,4.958c0.986,1.246,2.104,2.125,3.35,2.64c1.244,0.515,2.553,0.773,3.926,0.773
			c3.863,0,7.857-0.858,11.979-2.577c4.123-1.716,7.9-3.648,11.334-5.795c4.033-2.49,7.986-5.323,11.848-8.501l-1.932,30.138
			c-2.232,1.46-4.766,3.09-7.6,4.893c-2.832,1.804-5.859,3.5-9.078,5.088c-3.221,1.589-6.568,2.919-10.047,3.992
			c-3.477,1.074-7.018,1.609-10.625,1.609c-6.439,0-11.633-1.309-15.582-3.928c-3.951-2.619-7.086-6.053-9.402-10.303
			c-2.318-4.25-4.037-9.015-5.15-14.296c-1.119-5.28-2.02-10.625-2.707-16.034h-2.059l-23.055,64.266
			c-1.201,3.349-2.34,6.117-3.414,8.308c-1.074,2.189-2.168,3.972-3.283,5.345c-1.115,1.374-2.318,2.34-3.605,2.897
			c-1.287,0.559-2.705,0.836-4.25,0.836c-3.521,0-6.354-0.75-8.5-2.253c-2.148-1.501-3.799-3.52-4.959-6.054
			c-1.16-2.532-1.932-5.408-2.318-8.628S1148.316,223.795,1148.316,220.361z"/>
	</g>
</g>
</svg>
